<svg width="128" height="128" viewBox="0 0 128 128" fill="none" xmlns="http://www.w3.org/2000/svg">
<path d="M110.784 54.1654L103.488 32.272C102.43 29.0853 100.394 26.3131 97.6699 24.3494C94.9461 22.3857 91.6726 21.3304 88.3147 21.3334H74.6667V10.6667H53.3333V21.3334H39.6853C36.3274 21.3304 33.0539 22.3857 30.33 24.3494C27.6062 26.3131 25.5704 29.0853 24.512 32.272L17.216 54.1654C15.2779 54.9786 13.6228 56.3454 12.4578 58.0948C11.2929 59.8441 10.6698 61.8983 10.6667 64V90.6667C10.6667 94.6827 12.9227 98.144 16.208 99.9627C16.1387 100.315 16 100.635 16 101.003V112C16 113.415 16.5619 114.771 17.5621 115.771C18.5623 116.771 19.9188 117.333 21.3333 117.333H26.6667C28.0812 117.333 29.4377 116.771 30.4379 115.771C31.4381 114.771 32 113.415 32 112V101.333H96V112C96 113.415 96.5619 114.771 97.5621 115.771C98.5623 116.771 99.9188 117.333 101.333 117.333H106.667C108.081 117.333 109.438 116.771 110.438 115.771C111.438 114.771 112 113.415 112 112V101.003C112 100.635 111.861 100.309 111.792 99.9627C113.463 99.0514 114.86 97.708 115.834 96.0727C116.809 94.4375 117.327 92.5704 117.333 90.6667V64C117.333 59.5787 114.624 55.7814 110.784 54.1654ZM21.3333 90.6667V64H106.667L106.677 90.6667H21.3333ZM39.6853 32H88.3093C90.608 32 92.6453 33.4614 93.3707 35.648L99.2693 53.3334H28.7307L34.624 35.648C34.9779 34.5856 35.6572 33.6615 36.5656 33.0067C37.474 32.352 38.5655 31.9998 39.6853 32Z" fill="black"/>
<path d="M34.6667 85.3333C39.0849 85.3333 42.6667 81.7516 42.6667 77.3333C42.6667 72.915 39.0849 69.3333 34.6667 69.3333C30.2484 69.3333 26.6667 72.915 26.6667 77.3333C26.6667 81.7516 30.2484 85.3333 34.6667 85.3333Z" fill="black"/>
<path d="M93.3333 85.3333C97.7516 85.3333 101.333 81.7516 101.333 77.3333C101.333 72.915 97.7516 69.3333 93.3333 69.3333C88.9151 69.3333 85.3333 72.915 85.3333 77.3333C85.3333 81.7516 88.9151 85.3333 93.3333 85.3333Z" fill="black"/>
</svg>
