<svg width="81" height="80" viewBox="0 0 81 80" fill="none" xmlns="http://www.w3.org/2000/svg">
<path d="M75.9629 32.5H72.4129L63.8535 17.5188C63.4162 16.7536 62.7844 16.1177 62.0221 15.6754C61.2598 15.2331 60.3942 15.0001 59.5129 15H52.6566L48.9066 5.64378C48.5384 4.71486 47.8992 3.91826 47.0721 3.35757C46.245 2.79689 45.2684 2.49808 44.2691 2.50003H37.6566C36.6564 2.49683 35.6783 2.79505 34.85 3.35581C34.0217 3.91658 33.3815 4.71387 33.0129 5.64378L29.2691 15H22.4129C21.5316 15.0001 20.666 15.2331 19.9037 15.6754C19.1414 16.1177 18.5096 16.7536 18.0723 17.5188L9.51289 32.5H5.96289C5.29985 32.5 4.66396 32.7634 4.19512 33.2323C3.72628 33.7011 3.46289 34.337 3.46289 35C3.46289 35.6631 3.72628 36.299 4.19512 36.7678C4.66396 37.2366 5.29985 37.5 5.96289 37.5H8.46289V62.5C8.46289 63.8261 8.98967 65.0979 9.92736 66.0356C10.865 66.9732 12.1368 67.5 13.4629 67.5H20.9629C22.289 67.5 23.5607 66.9732 24.4984 66.0356C25.4361 65.0979 25.9629 63.8261 25.9629 62.5V60H55.9629V62.5C55.9629 63.8261 56.4897 65.0979 57.4274 66.0356C58.365 66.9732 59.6368 67.5 60.9629 67.5H68.4629C69.789 67.5 71.0607 66.9732 71.9984 66.0356C72.9361 65.0979 73.4629 63.8261 73.4629 62.5V37.5H75.9629C76.6259 37.5 77.2618 37.2366 77.7307 36.7678C78.1995 36.299 78.4629 35.6631 78.4629 35C78.4629 34.337 78.1995 33.7011 77.7307 33.2323C77.2618 32.7634 76.6259 32.5 75.9629 32.5ZM25.9629 47.5H18.4629C17.7998 47.5 17.164 47.2366 16.6951 46.7678C16.2263 46.299 15.9629 45.6631 15.9629 45C15.9629 44.337 16.2263 43.7011 16.6951 43.2323C17.164 42.7634 17.7998 42.5 18.4629 42.5H25.9629C26.6259 42.5 27.2618 42.7634 27.7307 43.2323C28.1995 43.7011 28.4629 44.337 28.4629 45C28.4629 45.6631 28.1995 46.299 27.7307 46.7678C27.2618 47.2366 26.6259 47.5 25.9629 47.5ZM63.4629 47.5H55.9629C55.2999 47.5 54.664 47.2366 54.1951 46.7678C53.7263 46.299 53.4629 45.6631 53.4629 45C53.4629 44.337 53.7263 43.7011 54.1951 43.2323C54.664 42.7634 55.2999 42.5 55.9629 42.5H63.4629C64.1259 42.5 64.7618 42.7634 65.2307 43.2323C65.6995 43.7011 65.9629 44.337 65.9629 45C65.9629 45.6631 65.6995 46.299 65.2307 46.7678C64.7618 47.2366 64.1259 47.5 63.4629 47.5ZM15.2723 32.5L22.4129 20H59.5129L66.6535 32.5H15.2723Z" fill="#FFC000"/>
</svg>
