<svg width="70" height="70" viewBox="0 0 70 70" fill="none" xmlns="http://www.w3.org/2000/svg">
<path d="M29.8754 47.5825L17.5 35.2042L21.6242 31.08L29.8754 39.3283L46.3721 22.8287L50.4992 26.9558L29.8754 47.5825Z" fill="#FFC700"/>
<path fill-rule="evenodd" clip-rule="evenodd" d="M2.91699 14.5833C2.91699 11.4891 4.14616 8.52164 6.33408 6.33371C8.522 4.14579 11.4895 2.91663 14.5837 2.91663H55.417C58.5112 2.91663 61.4786 4.14579 63.6666 6.33371C65.8545 8.52164 67.0837 11.4891 67.0837 14.5833V55.4166C67.0837 58.5108 65.8545 61.4783 63.6666 63.6662C61.4786 65.8541 58.5112 67.0833 55.417 67.0833H14.5837C11.4895 67.0833 8.522 65.8541 6.33408 63.6662C4.14616 61.4783 2.91699 58.5108 2.91699 55.4166V14.5833ZM14.5837 8.74996H55.417C56.9641 8.74996 58.4478 9.36454 59.5418 10.4585C60.6357 11.5525 61.2503 13.0362 61.2503 14.5833V55.4166C61.2503 56.9637 60.6357 58.4474 59.5418 59.5414C58.4478 60.6354 56.9641 61.25 55.417 61.25H14.5837C13.0366 61.25 11.5528 60.6354 10.4589 59.5414C9.36491 58.4474 8.75033 56.9637 8.75033 55.4166V14.5833C8.75033 13.0362 9.36491 11.5525 10.4589 10.4585C11.5528 9.36454 13.0366 8.74996 14.5837 8.74996Z" fill="#FFC700"/>
</svg>
