<svg width="16" height="16" viewBox="0 0 16 16" fill="none" xmlns="http://www.w3.org/2000/svg">
<path d="M8 2.66667C4.36364 2.66667 1.25818 4.92849 0 8.12122C1.25818 11.3139 4.36364 13.5758 8 13.5758C11.6364 13.5758 14.7418 11.3139 16 8.12122C14.7418 4.92849 11.6364 2.66667 8 2.66667ZM8 11.7576C5.99273 11.7576 4.36364 10.1285 4.36364 8.12122C4.36364 6.11394 5.99273 4.48485 8 4.48485C10.0073 4.48485 11.6364 6.11394 11.6364 8.12122C11.6364 10.1285 10.0073 11.7576 8 11.7576ZM8 5.9394C6.79273 5.9394 5.81818 6.91394 5.81818 8.12122C5.81818 9.32849 6.79273 10.303 8 10.303C9.20727 10.303 10.1818 9.32849 10.1818 8.12122C10.1818 6.91394 9.20727 5.9394 8 5.9394Z" fill="#4D4D4D"/>
</svg>
