<svg width="70" height="70" viewBox="0 0 70 70" fill="none" xmlns="http://www.w3.org/2000/svg">
<g clip-path="url(#clip0_2090_1251)">
<path d="M46.6663 8.75C48.8982 8.74988 51.0458 9.60261 52.6696 11.1337C54.2934 12.6649 55.2708 14.7586 55.4018 16.9867L55.4163 17.5V46.6667H57.6038C59.4909 46.6667 61.0455 48.1017 61.2322 49.9392L61.2497 50.3125V55.4167C61.2498 57.6485 60.3971 59.7961 58.8659 61.4199C57.3348 63.0438 55.241 64.0211 53.013 64.1521L52.4997 64.1667H23.333C21.1011 64.1668 18.9536 63.314 17.3297 61.7829C15.7059 60.2518 14.7285 58.158 14.5976 55.93L14.583 55.4167V26.25H9.47884C8.57626 26.2504 7.7056 25.916 7.03536 25.3115C6.36511 24.707 5.94293 23.8753 5.85051 22.9775L5.83301 22.6042V17.5C5.83288 15.2681 6.68562 13.1206 8.21675 11.4967C9.74788 9.8729 11.8417 8.89552 14.0697 8.76458L14.583 8.75H46.6663ZM46.6663 14.5833H20.4163V55.4167C20.4163 56.1902 20.7236 56.9321 21.2706 57.4791C21.8176 58.026 22.5595 58.3333 23.333 58.3333C24.1066 58.3333 24.8484 58.026 25.3954 57.4791C25.9424 56.9321 26.2497 56.1902 26.2497 55.4167V50.3125C26.2497 48.3 27.883 46.6667 29.8955 46.6667H49.583V17.5C49.583 16.7265 49.2757 15.9846 48.7287 15.4376C48.1818 14.8906 47.4399 14.5833 46.6663 14.5833ZM55.4163 52.5H32.083V55.4167C32.083 56.4375 31.908 57.4204 31.5872 58.3333H52.4997C53.2732 58.3333 54.0151 58.026 54.5621 57.4791C55.109 56.9321 55.4163 56.1902 55.4163 55.4167V52.5ZM34.9997 35C35.7732 35 36.5151 35.3073 37.0621 35.8543C37.609 36.4013 37.9163 37.1431 37.9163 37.9167C37.9163 38.6902 37.609 39.4321 37.0621 39.9791C36.5151 40.526 35.7732 40.8333 34.9997 40.8333H29.1663C28.3928 40.8333 27.6509 40.526 27.1039 39.9791C26.557 39.4321 26.2497 38.6902 26.2497 37.9167C26.2497 37.1431 26.557 36.4013 27.1039 35.8543C27.6509 35.3073 28.3928 35 29.1663 35H34.9997ZM40.833 23.3333C41.6066 23.3333 42.3484 23.6406 42.8954 24.1876C43.4424 24.7346 43.7497 25.4765 43.7497 26.25C43.7497 27.0235 43.4424 27.7654 42.8954 28.3124C42.3484 28.8594 41.6066 29.1667 40.833 29.1667H29.1663C28.3928 29.1667 27.6509 28.8594 27.1039 28.3124C26.557 27.7654 26.2497 27.0235 26.2497 26.25C26.2497 25.4765 26.557 24.7346 27.1039 24.1876C27.6509 23.6406 28.3928 23.3333 29.1663 23.3333H40.833ZM14.583 14.5833C13.8686 14.5834 13.1791 14.8457 12.6453 15.3204C12.1114 15.7951 11.7703 16.4493 11.6868 17.1587L11.6663 17.5V20.4167H14.583V14.5833Z" fill="#FFC700"/>
</g>
<defs>
<clipPath id="clip0_2090_1251">
<rect width="70" height="70" fill="white"/>
</clipPath>
</defs>
</svg>
