<svg width="30" height="30" viewBox="0 0 30 30" fill="none" xmlns="http://www.w3.org/2000/svg">
<path d="M14.4727 23.2909L11.3673 17.08L0.498225 11.6454C0.349564 11.5773 0.223589 11.4679 0.135269 11.3303C0.0469495 11.1927 0 11.0326 0 10.8691C0 10.7055 0.0469495 10.5455 0.135269 10.4078C0.223589 10.2702 0.349564 10.1608 0.498225 10.0927L28.4473 0L23.9428 12.4746M25.3418 23.2909V23.3064M28.6352 26.5842C29.2868 25.9328 29.7305 25.1028 29.9104 24.1992C30.0902 23.2955 29.9981 22.3589 29.6455 21.5076C29.293 20.6563 28.696 19.9288 27.9299 19.4168C27.1639 18.9049 26.2632 18.6317 25.3418 18.6317C24.4205 18.6317 23.5198 18.9049 22.7537 19.4168C21.9877 19.9288 21.3906 20.6563 21.0381 21.5076C20.6856 22.3589 20.5934 23.2955 20.7733 24.1992C20.9531 25.1028 21.3969 25.9328 22.0485 26.5842C22.6975 27.2343 23.7953 28.2068 25.3418 29.5018C26.9743 28.1198 28.072 27.1473 28.6352 26.5842Z" stroke="#FFC700" stroke-width="3.33333" stroke-linecap="round" stroke-linejoin="round"/>
</svg>
