<svg width="30" height="30" viewBox="0 0 30 30" fill="none" xmlns="http://www.w3.org/2000/svg">
<path d="M15 20.3571C16.4208 20.3571 17.7834 19.7927 18.7881 18.7881C19.7927 17.7834 20.3571 16.4208 20.3571 15C20.3571 13.5792 19.7927 12.2166 18.7881 11.2119C17.7834 10.2073 16.4208 9.64286 15 9.64286C13.5792 9.64286 12.2166 10.2073 11.2119 11.2119C10.2073 12.2166 9.64286 13.5792 9.64286 15C9.64286 16.4208 10.2073 17.7834 11.2119 18.7881C12.2166 19.7927 13.5792 20.3571 15 20.3571ZM16.6071 1.60714C16.6071 1.1809 16.4378 0.772119 16.1364 0.470721C15.835 0.169324 15.4262 0 15 0C14.5738 0 14.165 0.169324 13.8636 0.470721C13.5622 0.772119 13.3929 1.1809 13.3929 1.60714V4.40571C11.1319 4.74851 9.03984 5.80575 7.4228 7.4228C5.80575 9.03984 4.74851 11.1319 4.40571 13.3929H1.60714C1.1809 13.3929 0.772119 13.5622 0.470721 13.8636C0.169324 14.165 0 14.5738 0 15C0 15.4262 0.169324 15.835 0.470721 16.1364C0.772119 16.4378 1.1809 16.6071 1.60714 16.6071H4.40571C4.74851 18.8681 5.80575 20.9602 7.4228 22.5772C9.03984 24.1942 11.1319 25.2515 13.3929 25.5943V28.3929C13.3929 28.8191 13.5622 29.2279 13.8636 29.5293C14.165 29.8307 14.5738 30 15 30C15.4262 30 15.835 29.8307 16.1364 29.5293C16.4378 29.2279 16.6071 28.8191 16.6071 28.3929V25.5943C18.8681 25.2515 20.9602 24.1942 22.5772 22.5772C24.1942 20.9602 25.2515 18.8681 25.5943 16.6071H28.3929C28.8191 16.6071 29.2279 16.4378 29.5293 16.1364C29.8307 15.835 30 15.4262 30 15C30 14.5738 29.8307 14.165 29.5293 13.8636C29.2279 13.5622 28.8191 13.3929 28.3929 13.3929H25.5943C25.2515 11.1319 24.1942 9.03984 22.5772 7.4228C20.9602 5.80575 18.8681 4.74851 16.6071 4.40571V1.60714ZM15 22.5C13.0109 22.5 11.1032 21.7098 9.6967 20.3033C8.29018 18.8968 7.5 16.9891 7.5 15C7.5 13.0109 8.29018 11.1032 9.6967 9.6967C11.1032 8.29018 13.0109 7.5 15 7.5C16.9891 7.5 18.8968 8.29018 20.3033 9.6967C21.7098 11.1032 22.5 13.0109 22.5 15C22.5 16.9891 21.7098 18.8968 20.3033 20.3033C18.8968 21.7098 16.9891 22.5 15 22.5Z" fill="#FFC700"/>
</svg>
