<svg width="81" height="62" viewBox="0 0 81 62" fill="none" xmlns="http://www.w3.org/2000/svg">
<path fill-rule="evenodd" clip-rule="evenodd" d="M14.7699 16.9312C15.8925 16.9312 16.9691 16.4853 17.7629 15.6915C18.5567 14.8977 19.0027 13.821 19.0027 12.6984C19.0027 11.5758 18.5567 10.4992 17.7629 9.70537C16.9691 8.91156 15.8925 8.46561 14.7699 8.46561C13.6472 8.46561 12.5706 8.91156 11.7768 9.70537C10.983 10.4992 10.537 11.5758 10.537 12.6984C10.537 13.821 10.983 14.8977 11.7768 15.6915C12.5706 16.4853 13.6472 16.9312 14.7699 16.9312ZM14.7699 25.3968C18.1377 25.3968 21.3676 24.059 23.749 21.6775C26.1304 19.2961 27.4683 16.0662 27.4683 12.6984C27.4683 9.33058 26.1304 6.10069 23.749 3.71928C21.3676 1.33786 18.1377 0 14.7699 0C11.402 0 8.17213 1.33786 5.79072 3.71928C3.40931 6.10069 2.07144 9.33058 2.07144 12.6984C2.07144 16.0662 3.40931 19.2961 5.79072 21.6775C8.17213 24.059 11.402 25.3968 14.7699 25.3968Z" fill="#FFC000"/>
<path fill-rule="evenodd" clip-rule="evenodd" d="M14.9814 28.5714C13.2975 28.5714 11.6826 29.2404 10.4919 30.4311C9.30117 31.6218 8.63223 33.2367 8.63223 34.9206V41.2698C8.63223 42.3924 8.18628 43.4691 7.39247 44.2629C6.59867 45.0567 5.52204 45.5026 4.39943 45.5026C3.27682 45.5026 2.20019 45.0567 1.40639 44.2629C0.612581 43.4691 0.166626 42.3924 0.166626 41.2698V34.9206C0.166626 30.9915 1.72747 27.2233 4.50578 24.445C7.2841 21.6667 11.0523 20.1058 14.9814 20.1058C18.9106 20.1058 22.6788 21.6667 25.4571 24.445C28.2354 27.2233 29.7963 30.9915 29.7963 34.9206V41.2698C29.7963 42.3924 29.3503 43.4691 28.5565 44.2629C27.7627 45.0567 26.6861 45.5026 25.5634 45.5026C24.4408 45.5026 23.3642 45.0567 22.5704 44.2629C21.7766 43.4691 21.3306 42.3924 21.3306 41.2698V34.9206C21.3306 33.2367 20.6617 31.6218 19.471 30.4311C18.2803 29.2404 16.6654 28.5714 14.9814 28.5714ZM65.5634 16.9312C64.4408 16.9312 63.3642 16.4853 62.5704 15.6915C61.7766 14.8977 61.3306 13.821 61.3306 12.6984C61.3306 11.5758 61.7766 10.4992 62.5704 9.70537C63.3642 8.91156 64.4408 8.46561 65.5634 8.46561C66.6861 8.46561 67.7627 8.91156 68.5565 9.70537C69.3503 10.4992 69.7962 11.5758 69.7962 12.6984C69.7962 13.821 69.3503 14.8977 68.5565 15.6915C67.7627 16.4853 66.6861 16.9312 65.5634 16.9312ZM65.5634 25.3968C62.1956 25.3968 58.9657 24.059 56.5843 21.6775C54.2029 19.2961 52.865 16.0662 52.865 12.6984C52.865 9.33058 54.2029 6.10069 56.5843 3.71928C58.9657 1.33786 62.1956 0 65.5634 0C68.9313 0 72.1612 1.33786 74.5426 3.71928C76.924 6.10069 78.2619 9.33058 78.2619 12.6984C78.2619 16.0662 76.924 19.2961 74.5426 21.6775C72.1612 24.059 68.9313 25.3968 65.5634 25.3968Z" fill="#FFC000"/>
<path fill-rule="evenodd" clip-rule="evenodd" d="M65.3519 28.5713C67.0358 28.5713 68.6508 29.2403 69.8415 30.431C71.0322 31.6217 71.7011 33.2366 71.7011 34.9205V41.2697C71.7011 42.3923 72.1471 43.469 72.9409 44.2628C73.7347 45.0566 74.8113 45.5025 75.9339 45.5025C77.0565 45.5025 78.1332 45.0566 78.927 44.2628C79.7208 43.469 80.1667 42.3923 80.1667 41.2697V34.9205C80.1667 30.9914 78.6059 27.2232 75.8276 24.4449C73.0493 21.6666 69.2811 20.1057 65.3519 20.1057C61.4228 20.1057 57.6546 21.6666 54.8763 24.4449C52.098 27.2232 50.5371 30.9914 50.5371 34.9205V41.2697C50.5371 42.3923 50.9831 43.469 51.7769 44.2628C52.5707 45.0566 53.6473 45.5025 54.7699 45.5025C55.8925 45.5025 56.9692 45.0566 57.763 44.2628C58.5568 43.469 59.0027 42.3923 59.0027 41.2697V34.9205C59.0027 33.2366 59.6716 31.6217 60.8624 30.431C62.0531 29.2403 63.668 28.5713 65.3519 28.5713Z" fill="#FFC000"/>
<path fill-rule="evenodd" clip-rule="evenodd" d="M40.3783 40.2117C37.5718 40.2117 34.8802 41.3266 32.8957 43.3111C30.9112 45.2956 29.7963 47.9872 29.7963 50.7937V57.1429C29.7963 58.2655 29.3503 59.3422 28.5565 60.136C27.7627 60.9298 26.6861 61.3757 25.5635 61.3757C24.4409 61.3757 23.3642 60.9298 22.5704 60.136C21.7766 59.3422 21.3307 58.2655 21.3307 57.1429V50.7937C21.3307 45.742 23.3375 40.8971 26.9096 37.325C30.4817 33.7529 35.3265 31.7461 40.3783 31.7461C45.43 31.7461 50.2749 33.7529 53.847 37.325C57.4191 40.8971 59.4259 45.742 59.4259 50.7937V57.1429C59.4259 58.2655 58.9799 59.3422 58.1861 60.136C57.3923 60.9298 56.3157 61.3757 55.1931 61.3757C54.0705 61.3757 52.9938 60.9298 52.2 60.136C51.4062 59.3422 50.9603 58.2655 50.9603 57.1429V50.7937C50.9603 47.9872 49.8454 45.2956 47.8609 43.3111C45.8764 41.3266 43.1848 40.2117 40.3783 40.2117Z" fill="#FFC000"/>
<path fill-rule="evenodd" clip-rule="evenodd" d="M40.1667 28.5714C41.2893 28.5714 42.3659 28.1254 43.1597 27.3316C43.9535 26.5378 44.3995 25.4612 44.3995 24.3385C44.3995 23.2159 43.9535 22.1393 43.1597 21.3455C42.3659 20.5517 41.2893 20.1057 40.1667 20.1057C39.0441 20.1057 37.9674 20.5517 37.1736 21.3455C36.3798 22.1393 35.9339 23.2159 35.9339 24.3385C35.9339 25.4612 36.3798 26.5378 37.1736 27.3316C37.9674 28.1254 39.0441 28.5714 40.1667 28.5714ZM40.1667 37.037C43.5345 37.037 46.7644 35.6991 49.1458 33.3177C51.5272 30.9363 52.8651 27.7064 52.8651 24.3385C52.8651 20.9707 51.5272 17.7408 49.1458 15.3594C46.7644 12.978 43.5345 11.6401 40.1667 11.6401C36.7988 11.6401 33.569 12.978 31.1875 15.3594C28.8061 17.7408 27.4683 20.9707 27.4683 24.3385C27.4683 27.7064 28.8061 30.9363 31.1875 33.3177C33.569 35.6991 36.7988 37.037 40.1667 37.037Z" fill="#FFC000"/>
</svg>
