<svg width="80" height="64" viewBox="0 0 80 64" fill="none" xmlns="http://www.w3.org/2000/svg">
<path d="M9 11C9 9.14348 9.7375 7.36301 11.0503 6.05025C12.363 4.7375 14.1435 4 16 4C17.8565 4 19.637 4.7375 20.9497 6.05025C22.2625 7.36301 23 9.14348 23 11C23 12.8565 22.2625 14.637 20.9497 15.9497C19.637 17.2625 17.8565 18 16 18C14.1435 18 12.363 17.2625 11.0503 15.9497C9.7375 14.637 9 12.8565 9 11ZM8 30.7125C6.75 32.1125 6 33.975 6 36C6 38.025 6.75 39.8875 8 41.2875V30.7125ZM26.05 24.55C22.3375 27.8375 20 32.65 20 38C20 42.2875 21.5 46.225 24 49.3125V52C24 54.2125 22.2125 56 20 56H12C9.7875 56 8 54.2125 8 52V48.65C3.275 46.4 0 41.5875 0 36C0 28.2625 6.2625 22 14 22H18C21 22 23.775 22.9375 26.05 24.5375V24.55ZM56 52V49.3125C58.5 46.225 60 42.2875 60 38C60 32.65 57.6625 27.8375 53.95 24.5375C56.225 22.9375 59 22 62 22H66C73.7375 22 80 28.2625 80 36C80 41.5875 76.725 46.4 72 48.65V52C72 54.2125 70.2125 56 68 56H60C57.7875 56 56 54.2125 56 52ZM57 11C57 9.14348 57.7375 7.36301 59.0503 6.05025C60.363 4.7375 62.1435 4 64 4C65.8565 4 67.637 4.7375 68.9497 6.05025C70.2625 7.36301 71 9.14348 71 11C71 12.8565 70.2625 14.637 68.9497 15.9497C67.637 17.2625 65.8565 18 64 18C62.1435 18 60.363 17.2625 59.0503 15.9497C57.7375 14.637 57 12.8565 57 11ZM72 30.7125V41.3C73.25 39.8875 74 38.0375 74 36.0125C74 33.9875 73.25 32.125 72 30.725V30.7125ZM40 4C42.1217 4 44.1566 4.84285 45.6569 6.34315C47.1571 7.84344 48 9.87827 48 12C48 14.1217 47.1571 16.1566 45.6569 17.6569C44.1566 19.1571 42.1217 20 40 20C37.8783 20 35.8434 19.1571 34.3431 17.6569C32.8429 16.1566 32 14.1217 32 12C32 9.87827 32.8429 7.84344 34.3431 6.34315C35.8434 4.84285 37.8783 4 40 4ZM30 38C30 40.025 30.75 41.875 32 43.2875V32.7125C30.75 34.125 30 35.975 30 38ZM48 32.7125V43.3C49.25 41.8875 50 40.0375 50 38.0125C50 35.9875 49.25 34.125 48 32.725V32.7125ZM56 38C56 43.5875 52.725 48.4 48 50.65V56C48 58.2125 46.2125 60 44 60H36C33.7875 60 32 58.2125 32 56V50.65C27.275 48.4 24 43.5875 24 38C24 30.2625 30.2625 24 38 24H42C49.7375 24 56 30.2625 56 38Z" fill="#FFC700"/>
</svg>
