<svg width="80" height="80" viewBox="0 0 80 80" fill="none" xmlns="http://www.w3.org/2000/svg">
<g clip-path="url(#clip0_2090_1240)">
<path d="M56.016 0H23.984C21.8665 0 19.8357 0.841169 18.3385 2.33846C16.8412 3.83575 16 5.86651 16 7.984V72.012C16 76.424 19.576 80 23.984 80H56.012C58.1299 80 60.161 79.159 61.659 77.6618C63.1569 76.1646 63.9989 74.1339 64 72.016V7.984C64 5.86651 63.1588 3.83575 61.6615 2.33846C60.1643 0.841169 58.1335 0 56.016 0ZM40 76C37.24 76 35 74.212 35 72C35 69.788 37.24 68 40 68C42.76 68 45 69.788 45 72C45 74.212 42.76 76 40 76ZM56 64H24V8H56V64Z" fill="#FFC700"/>
</g>
<defs>
<clipPath id="clip0_2090_1240">
<rect width="80" height="80" fill="white"/>
</clipPath>
</defs>
</svg>
