<svg width="100" height="21" viewBox="0 0 100 21" fill="none" xmlns="http://www.w3.org/2000/svg">
<g clip-path="url(#clip0_64_180)">
<path d="M18.0284 4.06338C17.3492 4.38421 16.1934 4.98588 15.6125 5.10088C15.59 5.10671 15.5717 5.11421 15.55 5.12005C14.8725 4.45171 13.9442 4.03755 12.9167 4.03755C10.8459 4.03755 9.16669 5.71671 9.16669 7.78754C9.16669 7.89671 9.15753 8.09755 9.16669 8.20421C6.48503 8.20421 4.52669 6.80505 3.06086 5.00671C2.86503 4.76505 2.65669 4.89088 2.61336 5.06255C2.51586 5.45088 2.48253 6.10005 2.48253 6.56338C2.48253 7.73088 3.39503 8.87755 4.81586 9.58838C4.55419 9.65588 4.26586 9.70421 3.96586 9.70421C3.61253 9.70421 3.20586 9.61171 2.85003 9.42505C2.71836 9.35588 2.43419 9.37504 2.51836 9.71171C2.85586 11.0609 4.39586 12.0084 5.77169 12.2842C5.45919 12.4684 4.79253 12.4309 4.48586 12.4309C4.37253 12.4309 3.97836 12.4042 3.72336 12.3725C3.49086 12.3442 3.13336 12.4042 3.43253 12.8575C4.07503 13.83 5.52836 14.4409 6.77919 14.4642C5.62753 15.3675 3.74419 15.6975 1.94003 15.6975C1.57503 15.6892 1.59336 16.105 1.88753 16.2592C3.21836 16.9575 5.39836 17.3709 6.95586 17.3709C13.1475 17.3709 16.6667 12.6517 16.6667 8.20338C16.6667 8.13171 16.665 7.98171 16.6625 7.83088C16.6625 7.81588 16.6667 7.80171 16.6667 7.78671C16.6667 7.76421 16.66 7.74254 16.66 7.72004C16.6575 7.60671 16.655 7.50088 16.6525 7.44588C17.1434 7.09171 17.895 6.47671 18.275 6.00588C18.4042 5.84588 18.3 5.65171 18.1242 5.71255C17.6717 5.87005 16.8892 6.17505 16.3992 6.23338C17.38 5.58421 17.865 5.01921 18.2817 4.39171C18.4242 4.17755 18.2459 3.96005 18.0284 4.06338Z" fill="white"/>
<path d="M43.3333 7.92624H46.1111V17.3707H43.3333V7.92624ZM44.7139 6.81513H44.6983C43.8694 6.81513 43.3333 6.19735 43.3333 5.42569C43.3333 4.63735 43.8861 4.03735 44.73 4.03735C45.575 4.03735 46.0956 4.63735 46.1111 5.42569C46.1111 6.1968 45.575 6.81513 44.7139 6.81513ZM56.6667 17.3707H53.8889V12.3157C53.8889 11.0946 53.2083 10.2612 52.1156 10.2612C51.2817 10.2612 50.8306 10.8235 50.6117 11.3668C50.5317 11.5612 50.5556 12.099 50.5556 12.3707V17.3707H47.7778V7.92624H50.5556V9.37957C50.9561 8.75957 51.5833 7.92624 53.1878 7.92624C55.1756 7.92624 56.6661 9.17624 56.6661 11.9674L56.6667 17.3707Z" fill="white"/>
<path d="M94.6042 8.20399H91.6667V6.53732C91.6667 5.67732 91.7367 5.13566 92.9692 5.13566H94.5258V2.48566C93.7683 2.40732 93.0067 2.36899 92.2442 2.37066C89.9833 2.37066 88.3333 3.75149 88.3333 6.28649V8.20399H85.8333V11.5373L88.3333 11.5365V19.0373H91.6667V11.5348L94.2217 11.534L94.6042 8.20399Z" fill="white"/>
</g>
<defs>
<clipPath id="clip0_64_180">
<rect width="100" height="20" fill="white" transform="translate(0 0.704102)"/>
</clipPath>
</defs>
</svg>
