<svg width="81" height="80" viewBox="0 0 81 80" fill="none" xmlns="http://www.w3.org/2000/svg">
<path d="M40.3704 70C44.31 70 48.2111 69.224 51.8509 67.7164C55.4906 66.2087 58.7978 63.999 61.5836 61.2132C64.3693 58.4274 66.5791 55.1203 68.0868 51.4805C69.5944 47.8407 70.3704 43.9397 70.3704 40C70.3704 36.0603 69.5944 32.1593 68.0868 28.5195C66.5791 24.8797 64.3693 21.5726 61.5836 18.7868C58.7978 16.001 55.4906 13.7913 51.8509 12.2836C48.2111 10.776 44.31 10 40.3704 10C32.4139 10 24.7832 13.1607 19.1572 18.7868C13.5311 24.4129 10.3704 32.0435 10.3704 40C10.3704 47.9565 13.5311 55.5871 19.1572 61.2132C24.7832 66.8393 32.4139 70 40.3704 70ZM40.3704 75C31.0878 75 22.1854 71.3125 15.6216 64.7487C9.05785 58.185 5.37036 49.2826 5.37036 40C5.37036 30.7174 9.05785 21.815 15.6216 15.2513C22.1854 8.68749 31.0878 5 40.3704 5C49.6529 5 58.5553 8.68749 65.1191 15.2513C71.6829 21.815 75.3704 30.7174 75.3704 40C75.3704 49.2826 71.6829 58.185 65.1191 64.7487C58.5553 71.3125 49.6529 75 40.3704 75Z" fill="#FFC000"/>
<path d="M15.3704 40C15.3704 33.3696 18.0043 27.0107 22.6927 22.3223C27.3811 17.6339 33.7399 15 40.3704 15C47.0008 15 53.3596 17.6339 58.048 22.3223C62.7364 27.0107 65.3704 33.3696 65.3704 40C65.3704 40.663 65.107 41.2989 64.6381 41.7678C64.1693 42.2366 63.5334 42.5 62.8704 42.5C62.2073 42.5 61.5714 42.2366 61.1026 41.7678C60.6338 41.2989 60.3704 40.663 60.3704 40C60.3704 34.6957 58.2632 29.6086 54.5125 25.8579C50.7618 22.1071 45.6747 20 40.3704 20C35.066 20 29.979 22.1071 26.2282 25.8579C22.4775 29.6086 20.3704 34.6957 20.3704 40C20.3704 40.663 20.107 41.2989 19.6381 41.7678C19.1693 42.2366 18.5334 42.5 17.8704 42.5C17.2073 42.5 16.5714 42.2366 16.1026 41.7678C15.6338 41.2989 15.3704 40.663 15.3704 40Z" fill="#FFC000"/>
<path d="M44.9354 49.05C46.3384 50.1277 47.3152 51.6668 47.6932 53.3951C48.0713 55.1234 47.8262 56.9297 47.0012 58.4947C46.1763 60.0598 44.8247 61.2829 43.1853 61.9478C41.5458 62.6127 39.7241 62.6767 38.042 62.1284C36.36 61.5801 34.9259 60.4548 33.9933 58.9515C33.0606 57.4481 32.6894 55.6634 32.9453 53.9129C33.2012 52.1623 34.0677 50.5586 35.3916 49.3851C36.7156 48.2116 38.4117 47.5439 40.1804 47.5L44.9454 32.83C45.0441 32.5145 45.2044 32.2217 45.4171 31.9686C45.6297 31.7155 45.8905 31.507 46.1842 31.3553C46.4779 31.2037 46.7988 31.1117 47.1283 31.0849C47.4578 31.0581 47.7894 31.0969 48.1038 31.199C48.4182 31.3012 48.7092 31.4647 48.96 31.6801C49.2108 31.8954 49.4164 32.1584 49.5649 32.4538C49.7134 32.7492 49.8018 33.0711 49.8251 33.4008C49.8483 33.7306 49.8059 34.0617 49.7004 34.375L44.9354 49.045V49.05ZM39.5954 57.38C39.9079 57.4818 40.2374 57.521 40.5651 57.4954C40.8928 57.4698 41.2123 57.3799 41.5053 57.2309C41.7982 57.0819 42.059 56.8766 42.2726 56.6268C42.4862 56.377 42.6486 56.0875 42.7504 55.775C42.8521 55.4624 42.8914 55.1329 42.8658 54.8052C42.8402 54.4775 42.7503 54.1581 42.6013 53.8651C42.4522 53.5721 42.247 53.3114 41.9972 53.0977C41.7473 52.8841 41.4579 52.7218 41.1454 52.62C40.5141 52.4144 39.8271 52.4681 39.2355 52.7691C38.6438 53.0701 38.1959 53.5938 37.9904 54.225C37.7848 54.8562 37.8384 55.5432 38.1394 56.1349C38.4404 56.7266 38.9641 57.1744 39.5954 57.38Z" fill="#FFC000"/>
</svg>
