<svg width="81" height="80" viewBox="0 0 81 80" fill="none" xmlns="http://www.w3.org/2000/svg">
<path d="M73.7154 35.8906L59.6529 48.025L63.9373 66.1719C64.1737 67.157 64.1128 68.19 63.7624 69.1406C63.4119 70.0911 62.7876 70.9164 61.9684 71.5123C61.1491 72.1082 60.1716 72.448 59.1593 72.4886C58.1471 72.5292 57.1455 72.2689 56.2811 71.7406L40.4998 62.0281L24.7092 71.7406C23.8449 72.2659 22.8445 72.5237 21.834 72.4816C20.8235 72.4395 19.848 72.0993 19.0304 71.5039C18.2129 70.9085 17.5897 70.0845 17.2395 69.1357C16.8893 68.1869 16.8276 67.1556 17.0623 66.1719L21.3623 48.025L7.29981 35.8906C6.53511 35.2297 5.98207 34.3582 5.70975 33.3848C5.43743 32.4115 5.4579 31.3795 5.7686 30.4177C6.0793 29.4559 6.66647 28.607 7.45677 27.9769C8.24707 27.3469 9.20548 26.9636 10.2123 26.875L28.6498 25.3875L35.7623 8.17498C36.1473 7.23691 36.8025 6.43451 37.6447 5.86979C38.4869 5.30507 39.478 5.00354 40.492 5.00354C41.506 5.00354 42.4971 5.30507 43.3393 5.86979C44.1815 6.43451 44.8367 7.23691 45.2217 8.17498L52.3311 25.3875L70.7686 26.875C71.7774 26.9603 72.7386 27.3414 73.5318 27.9706C74.3249 28.5998 74.9148 29.4491 75.2274 30.412C75.5401 31.375 75.5616 32.4088 75.2893 33.3839C75.017 34.359 74.463 35.2321 73.6967 35.8937L73.7154 35.8906Z" fill="#FFC700"/>
</svg>
