<svg width="128" height="128" viewBox="0 0 128 128" fill="none" xmlns="http://www.w3.org/2000/svg">
<path d="M64 26.6667C40.4746 26.6667 21.3333 45.808 21.3333 69.3334C21.3333 92.8587 40.4746 112 64 112C87.5253 112 106.667 92.8587 106.667 69.3334C106.667 45.808 87.5253 26.6667 64 26.6667ZM64 101.333C46.352 101.333 32 86.9814 32 69.3334C32 51.6854 46.352 37.3334 64 37.3334C81.648 37.3334 96 51.6854 96 69.3334C96 86.9814 81.648 101.333 64 101.333Z" fill="black"/>
<path d="M58.6667 48H69.3333V74.6667H58.6667V48ZM48 10.6667H80V21.3334H48V10.6667ZM102.896 41.104L92.2293 30.4374L99.7707 22.896L110.437 33.5627L102.896 41.104Z" fill="black"/>
</svg>
