<svg width="71" height="70" viewBox="0 0 71 70" fill="none" xmlns="http://www.w3.org/2000/svg">
<rect x="3.1582" y="2.5" width="64.9999" height="64.9999" rx="32.5" fill="#162430"/>
<rect x="3.1582" y="2.5" width="64.9999" height="64.9999" rx="32.5" stroke="#FFC000" stroke-width="5"/>
<path d="M35.4951 17C37.4842 17 39.3919 17.7902 40.7984 19.1967C42.2049 20.6032 42.9951 22.5109 42.9951 24.5C42.9951 26.4891 42.2049 28.3968 40.7984 29.8033C39.3919 31.2098 37.4842 32 35.4951 32C33.506 32 31.5983 31.2098 30.1918 29.8033C28.7853 28.3968 27.9951 26.4891 27.9951 24.5C27.9951 22.5109 28.7853 20.6032 30.1918 19.1967C31.5983 17.7902 33.506 17 35.4951 17ZM35.4951 20.75C34.5006 20.75 33.5467 21.1451 32.8435 21.8483C32.1402 22.5516 31.7451 23.5054 31.7451 24.5C31.7451 25.4946 32.1402 26.4484 32.8435 27.1516C33.5467 27.8549 34.5006 28.25 35.4951 28.25C36.4897 28.25 37.4435 27.8549 38.1468 27.1516C38.85 26.4484 39.2451 25.4946 39.2451 24.5C39.2451 23.5054 38.85 22.5516 38.1468 21.8483C37.4435 21.1451 36.4897 20.75 35.4951 20.75ZM35.4951 33.875C40.5014 33.875 50.4951 36.3687 50.4951 41.375V47H20.4951V41.375C20.4951 36.3687 30.4889 33.875 35.4951 33.875ZM35.4951 37.4375C29.9264 37.4375 24.0576 40.175 24.0576 41.375V43.4375H46.9326V41.375C46.9326 40.175 41.0639 37.4375 35.4951 37.4375Z" fill="#FFC000"/>
</svg>
