<svg width="70" height="70" viewBox="0 0 70 70" fill="none" xmlns="http://www.w3.org/2000/svg">
<g clip-path="url(#clip0_2090_1247)">
<path d="M54.444 58.3333H11.6662V15.5555H37.3718L41.2607 11.6666H11.6662C10.6348 11.6666 9.64568 12.0763 8.91637 12.8057C8.18706 13.535 7.77734 14.5241 7.77734 15.5555V58.3333C7.77734 59.3647 8.18706 60.3538 8.91637 61.0832C9.64568 61.8125 10.6348 62.2222 11.6662 62.2222H54.444C55.4754 62.2222 56.4646 61.8125 57.1939 61.0832C57.9232 60.3538 58.3329 59.3647 58.3329 58.3333V29.1666L54.444 33.0555V58.3333Z" fill="#FFC700"/>
<path d="M65.1973 11.3555L58.6445 4.80276C58.3537 4.51116 58.0082 4.27979 57.6278 4.12193C57.2475 3.96407 56.8397 3.88281 56.4278 3.88281C56.016 3.88281 55.6082 3.96407 55.2278 4.12193C54.8475 4.27979 54.502 4.51116 54.2112 4.80276L27.5528 31.6167L25.3945 40.9694C25.3025 41.4228 25.3122 41.8909 25.4228 42.3401C25.5334 42.7893 25.7422 43.2084 26.0341 43.5672C26.326 43.9261 26.6938 44.2158 27.1111 44.4155C27.5283 44.6152 27.9847 44.72 28.4473 44.7222C28.6864 44.7485 28.9276 44.7485 29.1667 44.7222L38.5973 42.6417L65.1973 15.7889C65.4889 15.4981 65.7203 15.1526 65.8781 14.7722C66.036 14.3918 66.1172 13.984 66.1172 13.5722C66.1172 13.1604 66.036 12.7526 65.8781 12.3722C65.7203 11.9918 65.4889 11.6464 65.1973 11.3555ZM36.5751 39.0444L29.4584 40.6194L31.1112 33.5611L51.1778 13.3583L56.6612 18.8417L36.5751 39.0444ZM58.8584 16.6444L53.3751 11.1611L56.3889 8.08888L61.9112 13.6111L58.8584 16.6444Z" fill="#FFC700"/>
</g>
<defs>
<clipPath id="clip0_2090_1247">
<rect width="70" height="70" fill="white"/>
</clipPath>
</defs>
</svg>
